Coordinates
version=1
nRows=6
nColumns=36
inDegrees=yes

Units are S.I. units (second, meters, Newtons, ...)
If the header above contains a line with 'inDegrees', this indicates whether rotational values are in degrees (yes) or radians (no).

endheader
time	pelvis_tilt	pelvis_list	pelvis_rotation	pelvis_tx	pelvis_ty	pelvis_tz	hip_flexion_r	hip_adduction_r	hip_rotation_r	knee_angle_r	knee_angle_r_beta	ankle_angle_r	subtalar_angle_r	mtp_angle_r	hip_flexion_l	hip_adduction_l	hip_rotation_l	knee_angle_l	knee_angle_l_beta	ankle_angle_l	subtalar_angle_l	mtp_angle_l	lumbar_extension	lumbar_bending	lumbar_rotation	arm_flex_r	arm_add_r	arm_rot_r	elbow_flex_r	pro_sup_r	arm_flex_l	arm_add_l	arm_rot_l	elbow_flex_l	pro_sup_l
     29.83333330	      2.63986437	      0.04724168	     -3.08760498	      0.66983042	      1.03782407	      0.71660402	      4.43180334	     -2.21484296	      3.06937424	     55.14301395	      0.96242715	    -17.05761191	    -11.89394913	     -7.49999987	     16.73462893	      0.78984396	     -1.41664790	     22.79252786	      0.39780466	      7.17062628	     -4.69968920	     -7.49999987	    -19.05209353	     -3.63148887	      6.84114869	      5.71693760	    -18.49724222	      2.47102028	     37.88085178	     85.27153009	      9.75261306	    -11.85304640	     20.13670135	     21.25604157	     92.76079141
     29.85000000	      2.55030587	      0.23929951	     -3.27753053	      0.67009886	      1.04003001	      0.71450997	      7.01863101	     -2.34350463	      2.99378619	     59.09511580	      1.03140434	    -17.94756575	    -12.13815199	     -7.49999987	     15.49163026	      1.10831359	     -1.61538184	     22.07183119	      0.38522613	      7.52959175	     -5.00421925	     -7.49999987	    -19.05980811	     -4.14270309	      6.81197484	      5.21126144	    -18.17221107	      2.73734148	     37.47745398	     85.43969698	     11.00034680	    -12.01679465	     20.16891381	     21.78492198	     92.85918208
     29.86666670	      2.45487651	      0.35949300	     -3.34448834	      0.67105521	      1.04317899	      0.71352696	      9.57483152	     -2.21499451	      2.93134114	     62.48461241	      1.09056222	    -17.57101433	    -12.30772685	     -7.49999987	     14.26204822	      1.37371502	     -1.76066497	     21.43587590	      0.37412661	      7.94797956	     -5.13760955	     -7.49999987	    -19.05068818	     -4.53130619	      6.65089731	      4.62852036	    -17.86839426	      2.92919811	     37.16128824	     85.56142664	     12.24373148	    -12.21727465	     20.54672954	     22.32207887	     93.01751348
     29.88333330	      2.53023201	      0.36694234	     -3.27473266	      0.67140922	      1.04634006	      0.71346649	     12.10749424	     -1.80674295	      2.86623303	     64.93993686	      1.13341571	    -15.78446734	    -12.76593692	     -7.49999987	     12.73090016	      1.52340434	     -1.80473217	     20.72429902	      0.36170725	      8.55388343	     -4.99996032	     -7.49999987	    -19.42459138	     -4.74392002	      6.15341515	      3.95112653	    -17.58265549	      2.96670138	     37.63406314	     84.52007135	     13.02035428	    -12.69336035	     20.65623585	     23.90070168	     91.80502628
     29.90000000	      2.32462678	      0.18763968	     -2.99020647	      0.67044132	      1.04710932	      0.71267495	     15.13612425	     -1.20947146	      2.67807876	     65.96404065	      1.15128970	    -11.69598946	    -12.36470203	     -7.49999987	     11.36046188	      1.45575723	     -1.59109603	     19.92095176	      0.34768620	      9.39441406	     -4.52239330	     -7.49999987	    -19.33492958	     -4.61747316	      5.59594583	      3.31335427	    -17.26050239	      2.98153133	     37.58372776	     84.44936066	     14.10037560	    -12.96932721	     21.33397237	     24.19018885	     91.89245240
     29.91666670	      2.25983770	     -0.16591760	     -2.55524803	      0.66870045	      1.04577596	      0.71131204	     17.96334669	     -0.47519451	      2.46728992	     65.60184199	      1.14496814	     -8.17086266	    -13.61990995	     -7.49999987	      9.90644782	      1.18133605	     -1.18129803	     19.31666381	      0.33713938	     10.04017273	     -4.36098394	     -7.49999987	    -19.48769916	     -4.18952944	      4.98201253	      2.82569704	    -16.97714887	      2.99423281	     37.62950108	     84.34963208	     15.15749955	    -13.21620971	     21.44754296	     24.63833941	     91.83912826
